g default
v 27.463409 -84.047211 98.450447
v 41.706829 -80.330399 98.430344
v 55.341827 -74.972290 96.992439
v 26.448486 -81.186356 96.850586
v 40.524956 -77.001953 96.548691
v 54.326904 -72.111435 95.392578
v 26.862686 -82.784607 94.822662
v 40.968838 -78.714745 94.375443
v 54.741104 -73.709686 93.364655
v 27.665833 -84.828232 97.459457
v 41.909237 -81.111404 97.439362
v 55.544235 -75.753311 96.001457
v 64.746338 -70.676804 93.880074
v 64.543915 -69.895790 94.871048
v 64.287903 -69.477615 92.578300
v 64.020874 -68.447273 93.885635
v 17.086975 -86.190781 96.372604
v 16.884583 -85.409760 97.363571
v 16.361511 -83.961250 96.378159
v 16.628540 -84.991577 95.070831
v -35.073029 -81.659477 98.472801
v -20.711992 -84.618393 99.774918
v -6.049530 -85.910194 99.592438
v -34.577728 -78.729568 96.756851
v -20.135036 -81.210175 97.758194
v -5.554230 -82.980293 97.876480
v -34.753479 -80.446968 94.792641
v -20.323383 -83.050644 95.653229
v -5.729980 -84.697693 95.912277
v -35.158905 -82.498711 97.512955
v -20.797876 -85.457626 98.815063
v -6.135406 -86.749435 98.632591
v 4.502350 -86.371277 97.350105
v 4.588226 -85.532036 98.309952
v 4.731781 -85.160538 95.999428
v 4.845062 -84.053391 97.265686
v -45.114563 -79.104477 95.436043
v -45.028687 -78.265244 96.395889
v -44.771851 -76.786613 95.351624
v -44.885162 -77.893753 94.085365
v 11.346506 -94.359024 88.290100
v 11.346533 -91.623520 87.826080
v 11.346529 -94.359009 93.376678
v 11.346533 -91.623520 92.250626
v 8.611046 -94.359024 92.912674
v 8.611032 -91.623520 93.376678
v 8.611050 -94.359009 88.290100
v 8.611031 -91.623520 88.290100
v 40.849258 -82.334419 97.463272
v 42.665154 -80.783638 96.987282
v 42.138386 -80.211052 98.186920
v -56.608234 -84.060654 87.265488
v -55.110374 -81.740509 86.998093
v -57.283974 -84.060654 92.306992
v -55.698158 -81.740517 91.003769
v -59.521912 -82.611565 91.538864
v -58.147335 -80.291412 92.191269
v -58.907852 -82.611557 86.957260
v -57.471584 -80.291420 87.149765
v -21.759834 -86.349426 98.432373
v -20.234825 -85.117096 98.274338
v -20.536394 -84.352402 99.444275
v -2.325466 159.636627 102.997849
v 18.433420 158.656189 102.815445
v -1.159760 162.097382 103.396774
v 18.433420 160.764374 103.185425
v -1.159760 162.503235 102.713264
v 18.433420 161.170227 102.501915
v -2.325466 160.975143 100.743668
v 18.433420 159.836304 100.828003
v 32.103981 157.944122 100.880569
v 32.103981 156.925934 102.595291
v 32.103981 158.994537 102.201698
v 32.103981 158.588669 102.885208
v 36.236938 157.214615 101.075363
v 36.236938 156.460602 102.345215
v 35.495125 158.032639 101.957626
v 35.495125 157.626770 102.641136
v -3.159258 160.305893 101.870758
v 17.544289 -97.758347 89.764259
v 15.468883 -96.159096 90.125969
v 15.216170 -92.631561 90.908630
v 17.095566 -90.871178 91.260742
v 27.988041 -89.043152 90.513695
v 40.117229 -85.980347 90.041344
v 47.382755 -83.384659 89.761185
v 50.101532 -84.129501 89.172211
v 51.044849 -87.268837 88.372620
v 39.183018 -94.087074 88.828720
v 28.606604 -96.529671 89.291550
v 17.450029 -94.295357 91.006622
v 48.430351 -86.636330 89.576477
v 39.742825 -89.784950 90.112778
v 28.177490 -92.771568 90.587227
v 49.766102 -90.184105 88.033096
v -17.544289 -97.758347 89.764259
v -15.468883 -96.159096 90.125969
v -15.216170 -92.631561 90.908630
v -17.095566 -90.871178 91.260742
v -27.988041 -89.043152 90.513695
v -40.117229 -85.980347 90.041344
v -47.382755 -83.384659 89.761185
v -50.101532 -84.129501 89.172211
v -51.044849 -87.268837 88.372620
v -39.183018 -94.087074 88.828720
v -28.606604 -96.529671 89.291550
v -17.450029 -94.295357 91.006622
v -48.430351 -86.636330 89.576477
v -39.742825 -89.784950 90.112778
v -28.177490 -92.771568 90.587227
v -49.766102 -90.184105 88.033096
v 26.478846 -176.248734 30.824041
v -26.478838 -176.248734 30.824041
v 26.478842 -176.248703 41.704617
v -26.478838 -176.248703 41.704617
v 26.478842 171.072754 69.163879
v -26.478842 171.072754 69.163879
v 26.478842 169.380417 79.912018
v -26.478842 169.380417 79.912018
v -34.894802 -168.226746 19.236935
v -0.000001 -170.267471 19.236935
v -34.894802 -168.226746 31.419445
v -0.000001 -170.267471 31.419445
v 34.894802 -168.226746 19.236935
v 34.894802 -168.226746 31.419445
vt 0.212941 0.100429
vt 0.369233 0.094615
vt 0.369233 0.130376
vt 0.212941 0.130376
vt 0.530869 0.094615
vt 0.530869 0.130376
vt 0.369233 0.041500
vt 0.212941 0.041500
vt 0.530869 0.148528
vt 0.369233 0.078969
vt 0.212941 0.078969
vt 0.530869 0.072339
vt 0.672206 0.148550
vt 0.652477 0.056248
vt 0.652477 0.148528
vt 0.652477 0.130376
vt 0.080515 0.130423
vt 0.097523 0.115355
vt 0.097523 0.130376
vt 0.097523 0.041500
vt 0.212941 0.148528
vt 0.530869 0.041500
vt 0.369233 0.148528
vt 0.097523 0.148528
vt 0.096862 0.130418
vt 0.096888 0.148548
vt 0.654089 0.148524
vt 0.652477 0.041500
vt 0.654231 0.130187
vt 0.097523 0.078969
vt 0.097523 0.056248
vt 0.097523 0.094614
vt 0.080685 0.148546
vt 0.212941 0.094614
vt 0.212941 0.072338
vt 0.652477 0.078969
vt 0.672381 0.130425
vt 0.652477 0.094614
vt 0.652477 0.115355
vt 0.530869 0.100429
vt 0.530869 0.078969
vt 0.369233 0.078690
vt 0.369233 0.094323
vt 0.212941 0.100429
vt 0.369233 0.094323
vt 0.369233 0.130376
vt 0.212941 0.130376
vt 0.530869 0.100429
vt 0.530869 0.130376
vt 0.369233 0.148528
vt 0.212941 0.148528
vt 0.530869 0.148528
vt 0.212941 0.041500
vt 0.369233 0.041500
vt 0.369233 0.078690
vt 0.212941 0.072338
vt 0.530869 0.041500
vt 0.530869 0.072339
vt 0.212941 0.078969
vt 0.369233 0.078969
vt 0.369233 0.094615
vt 0.212941 0.094614
vt 0.530869 0.078969
vt 0.530869 0.094615
vt 0.672206 0.148550
vt 0.672381 0.130425
vt 0.654231 0.130187
vt 0.654089 0.148524
vt 0.080515 0.130423
vt 0.080685 0.148546
vt 0.096888 0.148548
vt 0.096862 0.130418
vt 0.652477 0.078969
vt 0.652477 0.094614
vt 0.652477 0.041500
vt 0.652477 0.056248
vt 0.652477 0.130376
vt 0.652477 0.148528
vt 0.652477 0.115355
vt 0.097523 0.094614
vt 0.097523 0.078969
vt 0.097523 0.130376
vt 0.097523 0.115355
vt 0.097523 0.148528
vt 0.097523 0.056248
vt 0.097523 0.041500
vt 0.085962 0.066406
vt 0.085962 0.080518
vt 0.042993 0.080518
vt 0.031274 0.066406
vt 0.031274 0.261719
vt 0.042993 0.300781
vt 0.019556 0.300781
vt 0.042993 0.044775
vt 0.019556 0.022803
vt 0.085962 0.022803
vt 0.085962 0.044775
vt 0.085962 0.003906
vt 0.003931 0.003906
vt 0.085962 0.044775
vt 0.085962 0.066406
vt 0.031274 0.066406
vt 0.042993 0.044775
vt 0.031274 0.066406
vt 0.019556 0.022803
vt 0.042993 0.044775
vt 0.031274 0.066406
vt 0.042993 0.080518
vt 0.042993 0.300781
vt 0.031274 0.261719
vt 0.019556 0.300781
vt 0.003931 0.300781
vt 0.019556 0.022803
vt 0.031274 0.066406
vt 0.031274 0.261719
vt 0.019556 0.300781
vt 0.085962 0.066406
vt 0.085962 0.080518
vt 0.042993 0.080518
vt 0.031274 0.066406
vt 0.031274 0.261719
vt 0.042993 0.300781
vt 0.019556 0.300781
vt 0.042993 0.044775
vt 0.019556 0.022803
vt 0.085962 0.022803
vt 0.085962 0.044775
vt 0.085962 0.003906
vt 0.003931 0.003906
vt 0.085962 0.044775
vt 0.085962 0.066406
vt 0.031274 0.066406
vt 0.042993 0.044775
vt 0.031274 0.066406
vt 0.019556 0.022803
vt 0.042993 0.044775
vt 0.031274 0.066406
vt 0.042993 0.080518
vt 0.042993 0.300781
vt 0.031274 0.261719
vt 0.019556 0.300781
vt 0.003931 0.300781
vt 0.019556 0.022803
vt 0.031274 0.066406
vt 0.031274 0.261719
vt 0.019556 0.300781
vt 0.988053 0.115292
vt 0.812500 0.115256
vt 0.812500 0.099573
vt 0.980807 0.099630
vt 0.812500 0.088063
vt 0.980887 0.088121
vt 0.812500 0.072459
vt 0.988460 0.072462
vt 0.812500 0.053214
vt 0.988053 0.053214
vt 0.994458 0.062054
vt 0.662801 0.115412
vt 0.662458 0.072609
vt 0.670638 0.087875
vt 0.670531 0.099861
vt 0.994458 0.093592
vt 0.697298 0.072421
vt 0.697253 0.053214
vt 0.697413 0.087864
vt 0.697281 0.099851
vt 0.697253 0.115419
vt 0.662801 0.053214
vt 0.481359 0.716950
vt 0.464516 0.736901
vt 0.459301 0.704162
vt 0.582530 0.708992
vt 0.588750 0.743430
vt 0.485425 0.748962
vt 0.694467 0.711593
vt 0.705998 0.745524
vt 0.780482 0.721810
vt 0.777853 0.753725
vt 0.801082 0.741129
vt 0.474835 0.685139
vt 0.785109 0.686577
vt 0.802998 0.710461
vt 0.578433 0.673773
vt 0.680184 0.673517
vt 0.481359 0.716950
vt 0.459301 0.704162
vt 0.464516 0.736901
vt 0.582530 0.708992
vt 0.485425 0.748962
vt 0.588750 0.743430
vt 0.705998 0.745524
vt 0.694467 0.711593
vt 0.777853 0.753725
vt 0.780482 0.721810
vt 0.801082 0.741129
vt 0.474835 0.685139
vt 0.785109 0.686577
vt 0.802998 0.710461
vt 0.578433 0.673773
vt 0.680184 0.673517
vt 0.805246 0.394531
vt 0.805246 0.503906
vt 0.282954 0.503906
vt 0.282954 0.394531
vt 0.282954 0.394531
vt 0.805246 0.394531
vt 0.805246 0.503906
vt 0.282954 0.503906
vt 0.270158 0.537636
vt 0.545357 0.537636
vt 0.545357 0.633714
vt 0.270158 0.633714
vt 0.820556 0.537636
vt 0.820556 0.633714
vn -0.013876 -0.198957 0.979910
vn 0.107573 -0.173178 0.978998
vn -0.293887 0.934843 0.199245
vn -0.268628 0.943920 0.191973
vn 0.220432 -0.122687 0.967656
vn -0.320210 0.927129 0.194671
vn -0.049200 -0.009320 -0.998745
vn -0.025237 0.004760 -0.999670
vn -0.076818 -0.012032 -0.996973
vn 0.309147 -0.950981 -0.007908
vn 0.189025 -0.981880 -0.013488
vn 0.423333 -0.905608 -0.025742
vn 0.693965 0.086624 0.714779
vn 0.851513 -0.521276 -0.056544
vn 0.523125 0.185694 -0.831780
vn 0.328490 0.936706 0.121140
vn -0.383784 -0.923388 0.008058
vn -0.541323 -0.315486 0.779383
vn -0.802693 0.568486 0.180299
vn -0.608062 -0.182529 -0.772621
vn -0.180349 -0.122471 0.975948
vn -0.060464 -0.153031 0.986370
vn 0.136902 0.977316 0.161591
vn 0.164061 0.973929 0.156675
vn 0.063583 -0.158194 0.985359
vn 0.110361 0.981794 0.154602
vn 0.033076 -0.037230 -0.998759
vn 0.060785 -0.035242 -0.997528
vn 0.007086 -0.027378 -0.999600
vn -0.145995 -0.988816 0.030470
vn -0.266443 -0.963752 0.013760
vn -0.022512 -0.999478 0.023172
vn 0.599600 -0.192528 0.776797
vn 0.532756 -0.845747 0.029706
vn 0.616787 -0.106712 -0.779863
vn 0.699369 0.700286 0.143116
vn -0.753277 -0.657402 -0.019907
vn -0.686430 -0.004189 0.727183
vn -0.478279 0.872758 0.097688
vn -0.560866 0.065756 -0.825291
vn 0.707105 -0.707109 -0.000001
vn 0.707109 0.707105 -0.000001
vn 0.483919 0.628127 -0.609326
vn 0.448234 -0.758784 0.472580
vn 0.525770 -0.737171 0.424435
vn 0.644630 -0.153660 -0.748893
vn 0.309969 0.096856 0.945800
vn -0.608943 -0.608947 0.508303
vn -0.571245 0.590560 0.570016
vn -0.707109 0.707105 0.000000
vn -0.707105 -0.707109 0.000001
vn 0.227332 -0.973229 0.033848
vn 0.964557 0.226901 0.134709
vn 0.771495 0.305196 -0.558257
vn -0.042178 -0.882247 0.468894
vn 0.335879 -0.833265 0.439153
vn 0.694128 -0.217189 -0.686305
vn 0.496458 0.050427 0.866595
vn -0.899153 -0.193906 0.392332
vn -0.266877 0.803821 0.531647
vn -0.220551 0.974989 -0.027447
vn -0.965686 -0.225163 -0.129433
vn -0.478030 -0.502671 0.720284
vn -0.073240 -0.904312 0.420543
vn 0.062149 0.416316 0.907093
vn -0.436119 0.460241 0.773290
vn 0.111178 0.991331 -0.070012
vn -0.425546 0.904384 0.031628
vn -0.002015 -0.069229 -0.997599
vn -0.454303 0.391169 -0.800372
vn -0.950649 0.266783 0.158410
vn 0.615251 -0.484252 0.622066
vn 0.693292 0.306230 -0.652357
vn 0.525128 0.848349 0.067413
vn 0.483081 0.465434 0.741623
vn 0.017112 -0.067025 -0.997605
vn -0.096605 -0.904714 0.414923
vn 0.210399 0.975250 -0.067966
vn 0.134021 0.400887 0.906272
vn -0.056302 -0.201981 0.977770
vn -0.158915 -0.155949 0.974898
vn -0.154383 -0.283161 0.946565
vn 0.072642 -0.160232 0.984403
vn 0.046174 -0.001249 0.998933
vn -0.024765 -0.052905 0.998292
vn 0.097787 -0.155878 0.982924
vn 0.045116 0.003791 0.998975
vn 0.243099 -0.139934 0.959855
vn 0.135613 0.001569 0.990761
vn 0.305916 -0.050622 0.950712
vn -0.009027 -0.333228 0.942803
vn 0.267172 -0.289448 0.919151
vn 0.373105 -0.187275 0.908692
vn 0.097206 -0.315012 0.944097
vn 0.147689 -0.311167 0.938809
vn 0.056304 -0.201981 0.977770
vn 0.154385 -0.283160 0.946565
vn 0.158917 -0.155949 0.974898
vn -0.072642 -0.160231 0.984403
vn 0.024768 -0.052905 0.998292
vn -0.046174 -0.001249 0.998933
vn -0.045117 0.003791 0.998975
vn -0.097787 -0.155878 0.982924
vn -0.135615 0.001569 0.990760
vn -0.243100 -0.139934 0.959855
vn -0.305916 -0.050622 0.950712
vn 0.009030 -0.333228 0.942803
vn -0.267173 -0.289448 0.919151
vn -0.373105 -0.187274 0.908692
vn -0.097206 -0.315012 0.944097
vn -0.147689 -0.311167 0.938809
vn 0.000000 -1.000000 0.000003
vn 0.000000 -1.000000 0.000003
vn 0.000000 -1.000000 0.000003
vn 0.000000 -1.000000 0.000003
vn 0.000000 0.987830 0.155538
vn 0.000000 0.987830 0.155538
vn 0.000000 0.987830 0.155538
vn 0.000000 0.987830 0.155538
vn -0.058382 -0.998294 -0.000000
vn 0.000000 -1.000000 0.000000
vn 0.000000 -1.000000 0.000000
vn -0.058382 -0.998294 -0.000000
vn 0.058382 -0.998294 0.000001
vn 0.058382 -0.998294 0.000001
s 1
usemtl blinn14SG
f 1/1/1 2/43/2 5/3/3 4/4/4
f 2/43/2 3/40/5 6/6/6 5/3/3
f 4/4/4 5/3/3 8/23/7 7/21/8
f 5/3/3 6/6/6 9/9/9 8/23/7
f 7/8/8 8/7/7 11/42/10 10/35/11
f 8/7/7 9/22/9 12/12/12 11/42/10
f 10/11/11 11/10/10 2/2/2 1/34/1
f 11/10/10 12/41/12 3/5/5 2/2/2
f 14/13/13 13/37/14 15/29/15 16/27/16
f 17/17/17 18/33/18 19/26/19 20/25/20
f 3/5/5 12/41/12 13/36/14 14/38/13
f 12/12/12 9/22/9 15/28/15 13/14/14
f 9/9/9 6/6/6 16/16/16 15/15/15
f 6/6/6 3/40/5 14/39/13 16/16/16
f 10/11/11 1/34/1 18/32/18 17/30/17
f 1/1/1 4/4/4 19/19/19 18/18/18
f 4/4/4 7/21/8 20/24/20 19/19/19
f 7/8/8 10/35/11 17/31/17 20/20/20
s 2
f 21/44/21 22/45/22 25/46/23 24/47/24
f 22/45/22 23/48/25 26/49/26 25/46/23
f 24/47/24 25/46/23 28/50/27 27/51/28
f 25/46/23 26/49/26 29/52/29 28/50/27
f 27/53/28 28/54/27 31/55/30 30/56/31
f 28/54/27 29/57/29 32/58/32 31/55/30
f 30/59/31 31/60/30 22/61/22 21/62/21
f 31/60/30 32/63/32 23/64/25 22/61/22
f 34/65/33 33/66/34 35/67/35 36/68/36
f 37/69/37 38/70/38 39/71/39 40/72/40
f 23/64/25 32/63/32 33/73/34 34/74/33
f 32/58/32 29/57/29 35/75/35 33/76/34
f 29/52/29 26/49/26 36/77/36 35/78/35
f 26/49/26 23/48/25 34/79/33 36/77/36
f 30/59/31 21/62/21 38/80/38 37/81/37
f 21/44/21 24/47/24 39/82/39 38/83/38
f 24/47/24 27/51/28 40/84/40 39/82/39
f 27/53/28 30/56/31 37/85/37 40/86/40
s 3
f 41/87/41 42/88/42 44/89/43 43/90/44
f 49/91/45 50/92/46 51/93/47
f 45/94/48 46/95/49 48/96/50 47/97/51
f 42/98/42 48/96/50 46/95/49 44/99/43
f 47/100/51 41/101/41 43/102/44 45/103/48
f 43/104/44 46/105/49 45/106/48
f 43/107/44 44/108/43 50/109/46 49/110/45
f 44/99/43 46/95/49 51/111/47 50/112/46
f 46/113/49 43/114/44 49/115/45 51/116/47
s 4
f 52/117/52 53/118/53 55/119/54 54/120/55
f 60/121/56 61/122/57 62/123/58
f 56/124/59 57/125/60 59/126/61 58/127/62
f 53/128/53 59/126/61 57/125/60 55/129/54
f 58/130/62 52/131/52 54/132/55 56/133/59
f 54/134/55 57/135/60 56/136/59
f 54/137/55 55/138/54 61/139/57 60/140/56
f 55/129/54 57/125/60 62/141/58 61/142/57
f 57/143/60 54/144/55 60/145/56 62/146/58
s 5
f 63/147/63 64/148/64 66/149/65 65/150/66
f 65/150/66 66/149/65 68/151/67 67/152/68
f 67/152/68 68/151/67 70/153/69 69/154/70
f 69/154/70 70/153/69 64/155/64 63/156/63 79/157/71
f 76/158/72 75/159/73 77/160/74 78/161/75
f 79/162/71 63/147/63 65/150/66
f 64/155/64 70/153/69 71/163/76 72/164/77
f 70/153/69 68/151/67 73/165/78 71/163/76
f 68/151/67 66/149/65 74/166/79 73/165/78
f 66/149/65 64/148/64 72/167/77 74/166/79
f 72/164/77 71/163/76 75/159/73 76/168/72
f 71/163/76 73/165/78 77/160/74 75/159/73
f 73/165/78 74/166/79 78/161/75 77/160/74
f 74/166/79 72/167/77 76/158/72 78/161/75
f 69/154/70 79/162/71 67/152/68
f 67/152/68 79/162/71 65/150/66
s 6
f 91/169/80 82/170/81 81/171/82
f 94/172/83 84/173/84 83/174/85 91/169/80
f 94/172/83 93/175/86 85/176/87 84/173/84
f 93/175/86 92/177/88 86/178/89 85/176/87
f 92/177/88 87/179/90 86/178/89
f 91/169/80 83/174/85 82/170/81
f 80/180/91 91/169/80 81/171/82
f 95/181/92 88/182/93 92/177/88
f 88/182/93 87/179/90 92/177/88
f 90/183/94 89/184/95 93/175/86 94/172/83
f 80/180/91 90/183/94 94/172/83 91/169/80
f 89/184/95 95/181/92 92/177/88 93/175/86
s 7
f 107/185/96 97/186/97 98/187/98
f 110/188/99 107/185/96 99/189/100 100/190/101
f 110/188/99 100/190/101 101/191/102 109/192/103
f 109/192/103 101/191/102 102/193/104 108/194/105
f 108/194/105 102/193/104 103/195/106
f 107/185/96 98/187/98 99/189/100
f 96/196/107 97/186/97 107/185/96
f 111/197/108 108/194/105 104/198/109
f 104/198/109 108/194/105 103/195/106
f 106/199/110 110/188/99 109/192/103 105/200/111
f 96/196/107 107/185/96 110/188/99 106/199/110
f 105/200/111 109/192/103 108/194/105 111/197/108
s off
f 112/201/112 114/202/113 115/203/114 113/204/115
f 116/205/116 117/206/117 119/207/118 118/208/119
s 8
f 120/209/120 121/210/121 123/211/122 122/212/123
f 124/213/124 125/214/125 123/211/122 121/210/121
