g default
v 55.194622 -27.588930 129.583084
v 56.071663 -22.501976 129.371994
v 56.597904 51.171265 129.372009
v 55.896267 96.165100 129.372009
v 55.019196 117.477188 129.371994
v 53.265072 124.669113 129.371994
v 50.458488 129.229797 129.371994
v 72.027367 -57.376968 89.069839
v 71.497452 51.171265 92.580978
v 70.101776 100.623154 93.867142
v 68.086632 133.931259 94.762482
v 66.618523 142.250717 94.946808
v 63.847649 148.927246 95.175140
v 64.955406 -41.082802 109.220901
v 64.953529 51.294708 110.976486
v 63.890045 98.515846 111.619568
v 62.423500 126.863930 112.067230
v 60.789593 134.727463 112.159393
v 57.961418 140.424194 112.273560
v 71.150711 -64.070923 89.060440
v 64.066154 -46.799904 109.321747
v -46.424011 132.738052 129.445755
v -40.109131 135.544601 129.445724
v -30.110626 138.000473 129.445786
v -14.674347 140.105453 129.445831
v 0.000000 140.982437 129.445740
v -59.235535 153.082184 95.312485
v -51.178009 156.663361 95.399292
v -38.420227 160.118347 95.470627
v -18.723999 162.804138 95.582062
v 0.000000 163.923340 95.689743
v -53.576965 144.309067 112.379105
v -46.289124 147.547333 112.422531
v -34.750061 150.543839 112.458221
v -16.935364 152.972534 112.513962
v 0.000000 153.984482 112.567734
v 46.424011 132.738007 129.445740
v 40.109131 135.544586 129.445694
v 30.110626 138.000366 129.445694
v 14.674347 140.105423 129.445770
v 59.235535 153.082184 95.312485
v 51.178009 156.663361 95.399292
v 38.420227 160.118301 95.470581
v 18.723999 162.804092 95.582047
v 53.576965 144.309067 112.379105
v 46.289124 147.547333 112.422485
v 34.750061 150.543762 112.458145
v 16.935364 152.972443 112.513931
v -57.961411 140.424194 112.273590
v -50.458485 129.229828 129.372040
v -63.847656 148.927216 95.175140
v -55.194618 -27.588940 129.583130
v -56.071690 -22.501989 129.372025
v -56.597904 51.171253 129.372070
v -55.896267 96.165077 129.372086
v -55.019218 117.477158 129.372009
v -53.265072 124.669090 129.372086
v -72.027390 -57.376965 89.069839
v -71.497475 51.171253 92.580994
v -70.101776 100.623123 93.867188
v -68.086655 133.931259 94.762497
v -66.618546 142.250717 94.946777
v -64.955421 -41.082806 109.220993
v -64.953537 51.294701 110.976547
v -63.890060 98.515823 111.619614
v -62.423523 126.863914 112.067245
v -60.789612 134.727463 112.159409
v -71.150719 -64.070930 89.060455
v -64.066147 -46.799904 109.321808
v 0.000000 -45.444126 130.910660
v -16.603882 -44.253109 130.787567
v -31.359802 -41.095726 130.502014
v -43.792816 -36.278301 130.180405
v -52.388031 -31.366734 129.833282
v 0.000000 -90.290039 91.754990
v -21.186035 -88.770370 91.237732
v -40.242645 -84.323334 90.441193
v -57.706604 -77.186798 89.526550
v -68.199493 -69.585144 89.082123
v 0.000000 -69.398697 111.332825
v -19.162201 -68.024513 111.012665
v -36.307587 -64.169426 110.471619
v -51.467499 -58.109360 109.853500
v -61.146545 -51.765766 109.457718
v 16.603882 -44.253082 130.787506
v 31.359802 -41.095688 130.501999
v 43.792816 -36.278294 130.180374
v 52.388031 -31.366735 129.833267
v 21.186035 -88.770424 91.237808
v 40.242645 -84.323357 90.441223
v 57.706604 -77.186821 89.526596
v 68.199524 -69.585152 89.082153
v 19.162201 -68.024521 111.012665
v 36.307587 -64.169441 110.471603
v 51.467499 -58.109379 109.853500
v 61.146545 -51.765766 109.457718
vt 0.537563 0.333979
vt 0.538050 0.254514
vt 0.724256 0.258348
vt 0.714986 0.334939
vt 0.836040 0.262010
vt 0.799025 0.336140
vt 0.855762 0.282252
vt 0.827385 0.338541
vt 0.894584 0.350871
vt 0.814999 0.379866
vt 0.109528 0.163819
vt 0.537563 0.177529
vt 0.173780 0.248019
vt 0.732565 0.184195
vt 0.863908 0.190264
vt 0.897695 0.191483
vt 0.970316 0.327626
vt 0.247049 0.334699
vt 0.160720 0.290113
vt 0.082774 0.238665
vt 0.242855 0.347204
vt 0.814999 0.779051
vt 0.821029 0.762599
vt 0.902077 0.790805
vt 0.894584 0.808082
vt 0.826488 0.737697
vt 0.908225 0.762067
vt 0.831263 0.698271
vt 0.913930 0.716565
vt 0.835357 0.637401
vt 0.918462 0.646317
vt 0.837063 0.579536
vt 0.920246 0.579536
vt 0.977683 0.813118
vt 0.970316 0.832775
vt 0.984350 0.781345
vt 0.992472 0.731038
vt 0.997312 0.653370
vt 0.999120 0.579536
vt 0.902077 0.368268
vt 0.821029 0.396474
vt 0.908226 0.397006
vt 0.826488 0.421375
vt 0.913931 0.442507
vt 0.831263 0.460802
vt 0.918462 0.512756
vt 0.835357 0.521671
vt 0.977683 0.345954
vt 0.984350 0.377727
vt 0.992472 0.428035
vt 0.997312 0.505702
vt 0.537563 0.825237
vt 0.714986 0.824225
vt 0.724255 0.900907
vt 0.538050 0.904801
vt 0.799025 0.822959
vt 0.836040 0.897148
vt 0.827385 0.820428
vt 0.859197 0.883167
vt 0.242855 0.811891
vt 0.247049 0.824478
vt 0.173780 0.911246
vt 0.160720 0.869025
vt 0.109528 0.995401
vt 0.082774 0.920449
vt 0.537563 0.981752
vt 0.732565 0.975018
vt 0.863908 0.970296
vt 0.896714 0.968483
vt 0.239161 0.579536
vt 0.242202 0.645010
vt 0.120606 0.655098
vt 0.117586 0.579536
vt 0.250374 0.703197
vt 0.130058 0.722707
vt 0.263156 0.752223
vt 0.145551 0.782487
vt 0.276135 0.788479
vt 0.162458 0.823411
vt 0.007592 0.663079
vt 0.004699 0.579536
vt 0.018022 0.738224
vt 0.035756 0.807089
vt 0.056098 0.848465
vt 0.120606 0.503974
vt 0.242202 0.514063
vt 0.130058 0.436366
vt 0.250374 0.455876
vt 0.145551 0.376586
vt 0.263156 0.406849
vt 0.162458 0.335662
vt 0.276135 0.370594
vt 0.007592 0.495994
vt 0.018022 0.420849
vt 0.035756 0.351983
vt 0.056098 0.310607
vn 0.911161 0.003664 0.412033
vn 0.927577 0.004591 0.373605
vn 0.927363 0.029305 0.373015
vn 0.910388 0.026890 0.412881
vn 0.909321 0.111389 0.400910
vn 0.887073 0.115069 0.447057
vn 0.837004 0.280215 0.470004
vn 0.799057 0.294116 0.524408
vn 0.673853 0.500206 0.543798
vn 0.633625 0.494281 0.595152
vn 0.923381 -0.065783 0.378205
vn 0.942371 0.005511 0.334524
vn 0.906557 -0.066403 0.416827
vn 0.942591 0.031665 0.332445
vn 0.929141 0.107421 0.353776
vn 0.871044 0.265058 0.413554
vn 0.711456 0.504005 0.489704
vn 0.888121 -0.066906 0.454715
vn 0.792824 -0.262925 0.549819
vn 0.819310 -0.261785 0.510098
vn 0.764486 -0.263465 0.588343
vn -0.633624 0.494283 0.595151
vn -0.426838 0.655581 0.622915
vn -0.448897 0.685423 0.573313
vn -0.673852 0.500207 0.543798
vn -0.258000 0.742158 0.618577
vn -0.273274 0.775978 0.568489
vn -0.151510 0.775720 0.612620
vn -0.161482 0.810803 0.562602
vn -0.078234 0.788693 0.609789
vn -0.082390 0.824724 0.559501
vn 0.000002 0.792629 0.609704
vn 0.000002 0.828905 0.559389
vn -0.469267 0.712680 0.521417
vn -0.711455 0.504005 0.489704
vn -0.287488 0.806786 0.516186
vn -0.170839 0.842793 0.510406
vn -0.086230 0.857588 0.507058
vn 0.000002 0.862001 0.506906
vn 0.448896 0.685422 0.573313
vn 0.426838 0.655580 0.622916
vn 0.273270 0.775979 0.568489
vn 0.257996 0.742159 0.618578
vn 0.161479 0.810803 0.562603
vn 0.151507 0.775721 0.612620
vn 0.082393 0.824724 0.559502
vn 0.078237 0.788693 0.609789
vn 0.469266 0.712680 0.521417
vn 0.287484 0.806786 0.516186
vn 0.170837 0.842793 0.510407
vn 0.086232 0.857587 0.507059
vn -0.911161 0.003664 0.412034
vn -0.910388 0.026890 0.412881
vn -0.927363 0.029305 0.373015
vn -0.927577 0.004591 0.373605
vn -0.887073 0.115069 0.447057
vn -0.909321 0.111389 0.400909
vn -0.799057 0.294116 0.524408
vn -0.837004 0.280216 0.470004
vn -0.764482 -0.263470 0.588345
vn -0.888120 -0.066908 0.454716
vn -0.906556 -0.066405 0.416828
vn -0.792821 -0.262929 0.549821
vn -0.923381 -0.065785 0.378206
vn -0.819307 -0.261790 0.510100
vn -0.942371 0.005511 0.334523
vn -0.942591 0.031665 0.332444
vn -0.929141 0.107422 0.353776
vn -0.871044 0.265059 0.413554
vn 0.000001 -0.634419 0.772989
vn -0.106212 -0.629930 0.769355
vn -0.114488 -0.654977 0.746925
vn -0.000000 -0.660199 0.751091
vn -0.210539 -0.614713 0.760132
vn -0.224485 -0.638170 0.736441
vn -0.320503 -0.583884 0.745893
vn -0.343936 -0.602810 0.719950
vn -0.515986 -0.483375 0.707182
vn -0.550286 -0.491361 0.675092
vn -0.122630 -0.679249 0.723591
vn -0.000001 -0.685237 0.728321
vn -0.238140 -0.660798 0.711783
vn -0.366852 -0.620803 0.692837
vn -0.583418 -0.498248 0.641383
vn 0.114488 -0.654976 0.746926
vn 0.106213 -0.629929 0.769356
vn 0.224484 -0.638169 0.736443
vn 0.210538 -0.614712 0.760133
vn 0.343936 -0.602810 0.719951
vn 0.320502 -0.583884 0.745894
vn 0.550289 -0.491359 0.675092
vn 0.515989 -0.483373 0.707182
vn 0.122629 -0.679247 0.723592
vn 0.238140 -0.660797 0.711784
vn 0.366852 -0.620803 0.692837
vn 0.583421 -0.498245 0.641383
s 1
usemtl blinn14SG
f 3/1/1 15/2/2 16/3/3 4/4/4
f 4/4/4 16/3/3 17/5/5 5/6/6
f 5/6/6 17/5/5 18/7/7 6/8/8
f 6/8/8 18/7/7 19/9/9 7/10/10
f 8/11/11 9/12/12 15/2/2 14/13/13
f 16/3/3 15/2/2 9/12/12 10/14/14
f 17/5/5 16/3/3 10/14/14 11/15/15
f 18/7/7 17/5/5 11/15/15 12/16/16
f 19/9/9 18/7/7 12/16/16 13/17/17
f 14/13/13 15/2/2 3/1/1 2/18/18
f 14/13/13 21/19/19 20/20/20 8/11/11
f 1/21/21 21/19/19 14/13/13 2/18/18
f 50/22/22 22/23/23 32/24/24 49/25/25
f 22/23/23 23/26/26 33/27/27 32/24/24
f 23/26/26 24/28/28 34/29/29 33/27/27
f 24/28/28 25/30/30 35/31/31 34/29/29
f 25/30/30 26/32/32 36/33/33 35/31/31
f 32/24/24 27/34/34 51/35/35 49/25/25
f 33/27/27 28/36/36 27/34/34 32/24/24
f 34/29/29 29/37/37 28/36/36 33/27/27
f 35/31/31 30/38/38 29/37/37 34/29/29
f 36/33/33 31/39/39 30/38/38 35/31/31
f 7/10/10 19/9/9 45/40/40 37/41/41
f 37/41/41 45/40/40 46/42/42 38/43/43
f 38/43/43 46/42/42 47/44/44 39/45/45
f 39/45/45 47/44/44 48/46/46 40/47/47
f 40/47/47 48/46/46 36/33/33 26/32/32
f 45/40/40 19/9/9 13/17/17 41/48/48
f 46/42/42 45/40/40 41/48/48 42/49/49
f 47/44/44 46/42/42 42/49/49 43/50/50
f 48/46/46 47/44/44 43/50/50 44/51/51
f 36/33/33 48/46/46 44/51/51 31/39/39
f 54/52/52 55/53/53 65/54/54 64/55/55
f 55/53/53 56/56/56 66/57/57 65/54/54
f 56/56/56 57/58/58 67/59/59 66/57/57
f 57/58/58 50/22/22 49/25/25 67/59/59
f 52/60/60 53/61/61 63/62/62 69/63/63
f 63/62/62 58/64/64 68/65/65 69/63/63
f 58/64/64 63/62/62 64/55/55 59/66/66
f 65/54/54 60/67/67 59/66/66 64/55/55
f 66/57/57 61/68/68 60/67/67 65/54/54
f 67/59/59 62/69/69 61/68/68 66/57/57
f 49/25/25 51/35/35 62/69/69 67/59/59
f 63/62/62 53/61/61 54/52/52 64/55/55
f 70/70/70 71/71/71 81/72/72 80/73/73
f 71/71/71 72/74/74 82/75/75 81/72/72
f 72/74/74 73/76/76 83/77/77 82/75/75
f 73/76/76 74/78/78 84/79/79 83/77/77
f 80/73/73 81/72/72 76/80/80 75/81/81
f 82/75/75 77/82/82 76/80/80 81/72/72
f 83/77/77 78/83/83 77/82/82 82/75/75
f 84/79/79 79/84/84 78/83/83 83/77/77
f 70/70/70 80/73/73 93/85/85 85/86/86
f 85/86/86 93/85/85 94/87/87 86/88/88
f 86/88/88 94/87/87 95/89/89 87/90/90
f 87/90/90 95/89/89 96/91/91 88/92/92
f 1/21/21 88/92/92 96/91/91 21/19/19
f 80/73/73 75/81/81 89/93/93 93/85/85
f 94/87/87 93/85/85 89/93/93 90/94/94
f 95/89/89 94/87/87 90/94/94 91/95/95
f 96/91/91 95/89/89 91/95/95 92/96/96
f 96/91/91 92/96/96 20/20/20 21/19/19
f 84/79/79 69/63/63 68/65/65 79/84/84
f 52/60/60 69/63/63 84/79/79 74/78/78
