g default
v 72.373505 -129.079620 24.683979
v 76.035896 -129.208313 24.626684
v 76.881065 -133.878342 23.344486
v 76.317619 -134.907806 22.089104
v 72.232643 -135.036499 22.031809
v 72.232643 -135.036499 36.666477
v 76.317619 -134.907806 36.609184
v 76.881065 -133.878342 35.353802
v 76.035896 -129.208313 34.071602
v 72.373505 -129.079620 34.014309
v 72.373505 -130.071243 29.349144
v 76.035896 -130.212097 29.349144
v 76.881065 -135.324097 29.349144
v 76.317619 -136.450974 29.349144
v 72.232643 -136.591843 29.349144
v 74.372261 -132.830002 23.014208
v 74.372261 -129.023224 17.774635
v 74.372261 -123.414452 14.536402
v 74.372261 -116.973465 13.859426
v 74.372261 -110.813972 15.860763
v 74.372261 -106.001022 20.194363
v 74.372261 -103.366806 26.110909
v 74.372261 -103.366806 32.587376
v 74.372261 -106.001022 38.503922
v 74.372261 -110.813972 42.837524
v 74.372261 -116.973457 44.838863
v 74.372261 -123.414444 44.161888
v 74.372261 -129.023224 40.923656
v 74.372261 -132.830002 35.684082
v 74.372261 -134.176529 29.349144
vt 0.832539 0.000000
vt 0.832539 0.232183
vt 0.677766 0.225888
vt 0.644274 0.182919
vt 0.500000 0.182919
vt 0.644274 1.000000
vt 0.644274 0.788741
vt 0.677766 0.745772
vt 0.832539 0.739477
vt 1.000000 0.788741
vt 1.000000 0.500000
vt 0.832539 0.501644
vt 0.677766 0.500000
vt 0.644274 0.500000
vt 0.500000 0.500000
vt 0.832539 0.999118
vt 0.644274 0.788741
vt 0.500000 0.788741
vt 0.644274 0.182919
vt 0.644274 0.000000
vt 1.000000 0.182919
vt 0.001635 0.500000
vt 0.023128 0.298515
vt 0.083890 0.131868
vt 0.173415 0.028875
vt 0.276222 0.007343
vt 0.374537 0.070997
vt 0.451359 0.208829
vt 0.493405 0.397007
vt 0.493405 0.602993
vt 0.451359 0.791171
vt 0.374537 0.929003
vt 0.276222 0.992657
vt 0.173415 0.971125
vt 0.083890 0.868132
vt 0.023128 0.701485
vn 0.660253 -0.269535 -0.701011
vn 0.623660 0.647158 -0.438445
vn 0.971894 0.016436 -0.234843
vn 0.026783 -0.453515 0.890846
vn 0.660252 -0.269535 0.701012
vn 0.623659 0.647159 0.438445
vn 0.024189 0.890616 0.454113
vn 0.024189 0.890616 -0.454113
vn 0.038433 0.999261 0.000000
vn 0.667012 0.745047 0.000000
vn 0.991208 -0.132309 0.000000
vn 0.971894 0.016436 0.234844
vn 0.557746 -0.830011 0.000000
vn 0.034464 -0.999406 -0.000000
vn 0.026783 -0.453515 -0.890846
vn 1.000000 -0.000000 0.000000
vn 1.000000 -0.000000 0.000000
vn 1.000000 -0.000000 0.000000
vn 1.000000 -0.000000 0.000000
vn 1.000000 -0.000000 0.000000
vn 1.000000 -0.000000 0.000000
vn 1.000000 -0.000000 0.000000
vn 1.000000 -0.000000 0.000000
vn 1.000000 -0.000000 0.000000
vn 1.000000 -0.000000 0.000000
vn 1.000000 -0.000000 0.000000
vn 1.000000 -0.000000 0.000000
vn 1.000000 -0.000000 0.000000
vn 1.000000 -0.000000 0.000000
vn 1.000000 -0.000000 0.000000
s 1
usemtl brakes_miniwheel_blinn9SG
f 4/19/1 2/2/2 3/3/3
f 6/6/4 7/17/5 9/9/6 10/16/7
f 1/21/8 11/11/9 12/12/10 2/2/2
f 11/11/9 10/10/7 9/9/6 12/12/10
f 2/2/2 12/12/10 13/13/11 3/3/3
f 12/12/10 9/9/6 8/8/12 13/13/11
f 3/3/3 13/13/11 14/14/13 4/4/1
f 13/13/11 8/8/12 7/7/5 14/14/13
f 4/4/1 14/14/13 15/15/14 5/5/15
f 14/14/13 7/7/5 6/18/4 15/15/14
f 1/1/8 2/2/2 4/19/1 5/20/15
f 9/9/6 7/17/5 8/8/12
s off
f 30/22/16 16/23/17 17/24/18 18/25/19 19/26/20 20/27/21 21/28/22 22/29/23 23/30/24 24/31/25 25/32/26 26/33/27 27/34/28 28/35/29 29/36/30
v 72.373505 138.687546 24.683979
v 76.035896 138.816223 24.626684
v 76.881058 143.486267 23.344486
v 76.317619 144.515732 22.089104
v 72.232643 144.644409 22.031811
v 72.232643 144.644409 36.666477
v 76.317619 144.515732 36.609184
v 76.881058 143.486267 35.353802
v 76.035896 138.816223 34.071602
v 72.373505 138.687546 34.014309
v 72.373505 139.679153 29.349144
v 76.035896 139.820023 29.349144
v 76.881058 144.932007 29.349144
v 76.317619 146.058899 29.349144
v 72.232643 146.199753 29.349144
v 74.372261 142.437912 23.014208
v 74.372261 138.631149 17.774635
v 74.372261 133.022369 14.536403
v 74.372261 126.581383 13.859427
v 74.372261 120.421890 15.860764
v 74.372261 115.608940 20.194365
v 74.372261 112.974724 26.110910
v 74.372261 112.974724 32.587376
v 74.372261 115.608940 38.503922
v 74.372261 120.421890 42.837524
v 74.372261 126.581375 44.838860
v 74.372261 133.022369 44.161888
v 74.372261 138.631149 40.923656
v 74.372261 142.437912 35.684082
v 74.372261 143.784454 29.349144
vt 0.832539 0.000000
vt 0.832539 0.232183
vt 0.677766 0.225888
vt 0.644274 0.182919
vt 0.500000 0.182919
vt 0.644274 1.000000
vt 0.644274 0.788741
vt 0.677766 0.745772
vt 0.832539 0.739477
vt 1.000000 0.788741
vt 1.000000 0.500000
vt 0.832539 0.501644
vt 0.677766 0.500000
vt 0.644274 0.500000
vt 0.500000 0.500000
vt 0.832539 0.999118
vt 0.644274 0.788741
vt 0.500000 0.788741
vt 0.644274 0.182919
vt 0.644274 0.000000
vt 1.000000 0.182919
vt 0.001635 0.500000
vt 0.023128 0.298515
vt 0.083890 0.131868
vt 0.173415 0.028875
vt 0.276222 0.007343
vt 0.374537 0.070997
vt 0.451359 0.208829
vt 0.493405 0.397007
vt 0.493405 0.602993
vt 0.451359 0.791171
vt 0.374537 0.929003
vt 0.276222 0.992657
vt 0.173415 0.971125
vt 0.083890 0.868132
vt 0.023128 0.701485
vn 0.660254 0.269535 -0.701010
vn 0.971895 -0.016436 -0.234841
vn 0.623662 -0.647157 -0.438445
vn 0.026780 0.453515 0.890846
vn 0.024189 -0.890616 0.454113
vn 0.623661 -0.647158 0.438444
vn 0.660254 0.269535 0.701010
vn 0.024189 -0.890616 -0.454113
vn 0.667012 -0.745047 -0.000000
vn 0.038433 -0.999261 -0.000000
vn 0.991209 0.132306 0.000000
vn 0.971895 -0.016436 0.234841
vn 0.557748 0.830011 -0.000000
vn 0.026780 0.453515 -0.890846
vn 0.034461 0.999406 -0.000000
vn 1.000000 -0.000000 0.000000
vn 1.000000 -0.000000 0.000000
vn 1.000000 -0.000000 0.000000
vn 1.000000 -0.000000 0.000000
vn 1.000000 -0.000000 0.000000
vn 1.000000 -0.000000 0.000000
vn 1.000000 -0.000000 0.000000
vn 1.000000 -0.000000 0.000000
vn 1.000000 -0.000000 0.000000
vn 1.000000 -0.000000 0.000000
vn 1.000000 -0.000000 0.000000
vn 1.000000 -0.000000 0.000000
vn 1.000000 -0.000000 0.000000
vn 1.000000 -0.000000 0.000000
vn 1.000000 -0.000000 0.000000
s 1
usemtl brakes_miniwheel_blinn9SG
f 34/55/31 33/39/32 32/38/33
f 36/42/34 40/52/35 39/45/36 37/53/37
f 31/57/38 32/38/33 42/48/39 41/47/40
f 41/47/40 42/48/39 39/45/36 40/46/35
f 32/38/33 33/39/32 43/49/41 42/48/39
f 42/48/39 43/49/41 38/44/42 39/45/36
f 33/39/32 34/40/31 44/50/43 43/49/41
f 43/49/41 44/50/43 37/43/37 38/44/42
f 34/40/31 35/41/44 45/51/45 44/50/43
f 44/50/43 45/51/45 36/54/34 37/43/37
f 31/37/38 35/56/44 34/55/31 32/38/33
f 39/45/36 38/44/42 37/53/37
s off
f 60/58/46 59/72/47 58/71/48 57/70/49 56/69/50 55/68/51 54/67/52 53/66/53 52/65/54 51/64/55 50/63/56 49/62/57 48/61/58 47/60/59 46/59/60
v -75.306107 -129.079620 24.683979
v -78.968498 -129.208313 24.626684
v -79.813675 -133.878342 23.344486
v -79.250229 -134.907806 22.089104
v -75.165245 -135.036499 22.031811
v -75.165245 -135.036499 36.666477
v -79.250229 -134.907806 36.609184
v -79.813675 -133.878342 35.353802
v -78.968498 -129.208313 34.071602
v -75.306107 -129.079620 34.014309
v -75.306107 -130.071243 29.349144
v -78.968498 -130.212097 29.349144
v -79.813675 -135.324081 29.349144
v -79.250229 -136.450974 29.349144
v -75.165245 -136.591843 29.349144
v -77.304871 -132.830002 23.014208
v -77.304871 -129.023224 17.774635
v -77.304871 -123.414444 14.536403
v -77.304871 -116.973457 13.859427
v -77.304871 -110.813980 15.860764
v -77.304871 -106.001022 20.194365
v -77.304871 -103.366806 26.110910
v -77.304871 -103.366806 32.587376
v -77.304871 -106.001022 38.503922
v -77.304871 -110.813972 42.837524
v -77.304871 -116.973457 44.838860
v -77.304871 -123.414452 44.161888
v -77.304871 -129.023224 40.923656
v -77.304871 -132.830002 35.684082
v -77.304871 -134.176529 29.349144
vt 0.832539 0.000000
vt 0.832539 0.232183
vt 0.677766 0.225888
vt 0.644274 0.182919
vt 0.500000 0.182919
vt 0.644274 1.000000
vt 0.644274 0.788741
vt 0.677766 0.745772
vt 0.832539 0.739477
vt 1.000000 0.788741
vt 1.000000 0.500000
vt 0.832539 0.501644
vt 0.677766 0.500000
vt 0.644274 0.500000
vt 0.500000 0.500000
vt 0.832539 0.999118
vt 0.644274 0.788741
vt 0.500000 0.788741
vt 0.644274 0.182919
vt 0.644274 0.000000
vt 1.000000 0.182919
vt 0.001635 0.500000
vt 0.023128 0.298515
vt 0.083890 0.131868
vt 0.173415 0.028875
vt 0.276222 0.007343
vt 0.374537 0.070997
vt 0.451359 0.208829
vt 0.493405 0.397007
vt 0.493405 0.602993
vt 0.451359 0.791171
vt 0.374537 0.929003
vt 0.276222 0.992657
vt 0.173415 0.971125
vt 0.083890 0.868132
vt 0.023128 0.701485
vn -0.660252 -0.269535 -0.701012
vn -0.971894 0.016437 -0.234844
vn -0.623659 0.647160 -0.438445
vn -0.026783 -0.453515 0.890846
vn -0.024189 0.890616 0.454113
vn -0.623659 0.647159 0.438445
vn -0.660253 -0.269534 0.701012
vn -0.024189 0.890616 -0.454113
vn -0.667011 0.745048 -0.000000
vn -0.038433 0.999261 -0.000000
vn -0.991209 -0.132307 0.000000
vn -0.971894 0.016438 0.234844
vn -0.557747 -0.830011 0.000000
vn -0.026782 -0.453515 -0.890846
vn -0.034464 -0.999406 0.000000
vn -1.000000 0.000000 0.000000
vn -1.000000 0.000000 0.000000
vn -1.000000 0.000000 0.000000
vn -1.000000 0.000000 0.000000
vn -1.000000 0.000000 0.000000
vn -1.000000 0.000000 0.000000
vn -1.000000 0.000000 0.000000
vn -1.000000 0.000000 0.000000
vn -1.000000 0.000000 0.000000
vn -1.000000 0.000000 0.000000
vn -1.000000 0.000000 0.000000
vn -1.000000 0.000000 0.000000
vn -1.000000 0.000000 0.000000
vn -1.000000 0.000000 0.000000
vn -1.000000 0.000000 0.000000
s 1
usemtl brakes_miniwheel_blinn9SG
f 64/91/61 63/75/62 62/74/63
f 66/78/64 70/88/65 69/81/66 67/89/67
f 61/93/68 62/74/63 72/84/69 71/83/70
f 71/83/70 72/84/69 69/81/66 70/82/65
f 62/74/63 63/75/62 73/85/71 72/84/69
f 72/84/69 73/85/71 68/80/72 69/81/66
f 63/75/62 64/76/61 74/86/73 73/85/71
f 73/85/71 74/86/73 67/79/67 68/80/72
f 64/76/61 65/77/74 75/87/75 74/86/73
f 74/86/73 75/87/75 66/90/64 67/79/67
f 61/73/68 65/92/74 64/91/61 62/74/63
f 69/81/66 68/80/72 67/89/67
s off
f 90/94/76 89/108/77 88/107/78 87/106/79 86/105/80 85/104/81 84/103/82 83/102/83 82/101/84 81/100/85 80/99/86 79/98/87 78/97/88 77/96/89 76/95/90
v -75.306107 138.687546 24.683979
v -78.968498 138.816223 24.626688
v -79.813675 143.486267 23.344486
v -79.250229 144.515732 22.089104
v -75.165245 144.644424 22.031811
v -75.165245 144.644424 36.666477
v -79.250229 144.515732 36.609184
v -79.813675 143.486282 35.353802
v -78.968498 138.816238 34.071602
v -75.306107 138.687546 34.014309
v -75.306107 139.679169 29.349144
v -78.968498 139.820023 29.349144
v -79.813675 144.932007 29.349144
v -79.250229 146.058899 29.349144
v -75.165245 146.199753 29.349144
v -77.304871 142.437912 23.014212
v -77.304871 138.631149 17.774635
v -77.304871 133.022369 14.536403
v -77.304871 126.581398 13.859427
v -77.304871 120.421906 15.860764
v -77.304871 115.608940 20.194368
v -77.304871 112.974724 26.110914
v -77.304871 112.974754 32.587376
v -77.304871 115.608971 38.503922
v -77.304871 120.421906 42.837528
v -77.304871 126.581390 44.838860
v -77.304871 133.022385 44.161888
v -77.304871 138.631149 40.923660
v -77.304871 142.437912 35.684082
v -77.304871 143.784454 29.349144
vt 0.832539 0.000000
vt 0.832539 0.232183
vt 0.677766 0.225888
vt 0.644274 0.182919
vt 0.500000 0.182919
vt 0.644274 1.000000
vt 0.644274 0.788741
vt 0.677766 0.745772
vt 0.832539 0.739477
vt 1.000000 0.788741
vt 1.000000 0.500000
vt 0.832539 0.501644
vt 0.677766 0.500000
vt 0.644274 0.500000
vt 0.500000 0.500000
vt 0.832539 0.999118
vt 0.644274 0.788741
vt 0.500000 0.788741
vt 0.644274 0.182919
vt 0.644274 0.000000
vt 1.000000 0.182919
vt 0.001635 0.500000
vt 0.023128 0.298515
vt 0.083890 0.131868
vt 0.173415 0.028875
vt 0.276222 0.007343
vt 0.374537 0.070997
vt 0.451359 0.208829
vt 0.493405 0.397007
vt 0.493405 0.602993
vt 0.451359 0.791171
vt 0.374537 0.929003
vt 0.276222 0.992657
vt 0.173415 0.971125
vt 0.083890 0.868132
vt 0.023128 0.701485
vn -0.660252 0.269535 -0.701012
vn -0.623658 -0.647160 -0.438444
vn -0.971894 -0.016438 -0.234843
vn -0.026781 0.453516 0.890845
vn -0.660253 0.269537 0.701011
vn -0.623660 -0.647160 0.438444
vn -0.024189 -0.890616 0.454113
vn -0.024188 -0.890616 -0.454112
vn -0.038432 -0.999261 0.000001
vn -0.667011 -0.745048 0.000001
vn -0.991208 0.132309 0.000000
vn -0.971895 -0.016436 0.234842
vn -0.557745 0.830013 0.000000
vn -0.034462 0.999406 0.000000
vn -0.026781 0.453516 -0.890846
vn -1.000000 -0.000000 0.000000
vn -1.000000 -0.000000 0.000000
vn -1.000000 -0.000000 0.000000
vn -1.000000 -0.000000 0.000000
vn -1.000000 -0.000000 0.000000
vn -1.000000 -0.000000 0.000000
vn -1.000000 -0.000000 0.000000
vn -1.000000 -0.000000 0.000000
vn -1.000000 -0.000000 0.000000
vn -1.000000 -0.000000 0.000000
vn -1.000000 -0.000000 0.000000
vn -1.000000 -0.000000 0.000000
vn -1.000000 -0.000000 0.000000
vn -1.000000 -0.000000 0.000000
vn -1.000000 -0.000000 0.000000
s 1
usemtl brakes_miniwheel_blinn9SG
f 94/127/91 92/110/92 93/111/93
f 96/114/94 97/125/95 99/117/96 100/124/97
f 91/129/98 101/119/99 102/120/100 92/110/92
f 101/119/99 100/118/97 99/117/96 102/120/100
f 92/110/92 102/120/100 103/121/101 93/111/93
f 102/120/100 99/117/96 98/116/102 103/121/101
f 93/111/93 103/121/101 104/122/103 94/112/91
f 103/121/101 98/116/102 97/115/95 104/122/103
f 94/112/91 104/122/103 105/123/104 95/113/105
f 104/122/103 97/115/95 96/126/94 105/123/104
f 91/109/98 92/110/92 94/127/91 95/128/105
f 99/117/96 97/125/95 98/116/102
s off
f 120/130/106 106/131/107 107/132/108 108/133/109 109/134/110 110/135/111 111/136/112 112/137/113 113/138/114 114/139/115 115/140/116 116/141/117 117/142/118 118/143/119 119/144/120
